<svg xmlns="http://www.w3.org/2000/svg" version="1.1" id="Layer_1" x="0px" y="0px" viewBox="-178 270.2 253.8 253.8" enable-background="new -178 270.2 253.8 253.8" xml:space="preserve"><circle fill="#333333" cx="-51.1" cy="397.1" r="126.9"/><path id="XMLID_5_" fill="#FFFFFF" d="M-55.1 344.8v40.3c0 2.6-0.7 4.9-2.2 7s-3.4 3.6-5.8 4.4v49c0 2.2-0.8 4.1-2.4 5.7 -1.6 1.6-3.5 2.4-5.7 2.4h-8.1c-2.2 0-4.1-0.8-5.7-2.4 -1.6-1.6-2.4-3.5-2.4-5.7v-49c-2.4-0.8-4.3-2.3-5.8-4.4s-2.2-4.4-2.2-7v-40.3c0-1.1 0.4-2 1.2-2.8 0.8-0.8 1.7-1.2 2.8-1.2s2 0.4 2.8 1.2c0.8 0.8 1.2 1.7 1.2 2.8V371c0 1.1 0.4 2 1.2 2.8 0.8 0.8 1.7 1.2 2.8 1.2 1.1 0 2-0.4 2.8-1.2 0.8-0.8 1.2-1.7 1.2-2.8v-26.2c0-1.1 0.4-2 1.2-2.8 0.8-0.8 1.7-1.2 2.8-1.2s2 0.4 2.8 1.2c0.8 0.8 1.2 1.7 1.2 2.8V371c0 1.1 0.4 2 1.2 2.8 0.8 0.8 1.7 1.2 2.8 1.2 1.1 0 2-0.4 2.8-1.2 0.8-0.8 1.2-1.7 1.2-2.8v-26.2c0-1.1 0.4-2 1.2-2.8 0.8-0.8 1.7-1.2 2.8-1.2s2 0.4 2.8 1.2C-55.5 342.7-55.1 343.7-55.1 344.8zM-6.8 344.8v100.7c0 2.2-0.8 4.1-2.4 5.7 -1.6 1.6-3.5 2.4-5.7 2.4H-23c-2.2 0-4.1-0.8-5.7-2.4 -1.6-1.6-2.4-3.5-2.4-5.7v-32.3H-45c-0.5 0-1-0.2-1.4-0.6s-0.6-0.9-0.6-1.4v-50.3c0-5.5 2-10.3 5.9-14.2s8.7-5.9 14.2-5.9h16.1c1.1 0 2 0.4 2.8 1.2C-7.2 342.7-6.8 343.7-6.8 344.8z"/></svg>