<svg xmlns="http://www.w3.org/2000/svg" version="1.1" id="Layer_1" x="0px" y="0px" viewBox="846 -756 80 67.7" enable-background="new 846 -756 80 67.7" xml:space="preserve"><path fill="#b2a68e" d="M913.7-717.4v15.3c0 3.8-1.4 7.1-4.1 9.8s-6 4.1-9.8 4.1h-40c-3.8 0-7.1-1.4-9.8-4.1s-4.1-6-4.1-9.8v-40c0-3.8 1.4-7.1 4.1-9.8s6-4.1 9.8-4.1h40c2 0 3.9 0.4 5.6 1.2 0.5 0.2 0.8 0.6 0.9 1.1 0.1 0.5 0 1-0.4 1.4l-2.4 2.4c-0.3 0.3-0.7 0.5-1.1 0.5 -0.1 0-0.2 0-0.4-0.1 -0.7-0.2-1.5-0.3-2.2-0.3h-40c-2.1 0-3.9 0.8-5.4 2.3s-2.3 3.3-2.3 5.4v40c0 2.1 0.8 3.9 2.3 5.4s3.3 2.3 5.4 2.3h40c2.1 0 3.9-0.8 5.4-2.3s2.3-3.3 2.3-5.4v-12.2c0-0.4 0.1-0.8 0.4-1.1l3.1-3.1c0.3-0.3 0.7-0.5 1.1-0.5 0.2 0 0.4 0 0.6 0.1C913.4-718.6 913.7-718.1 913.7-717.4zM924.8-740.9l-39.2 39.2c-0.8 0.8-1.7 1.2-2.7 1.2 -1.1 0-2-0.4-2.7-1.2l-20.7-20.7c-0.8-0.8-1.2-1.7-1.2-2.7 0-1.1 0.4-2 1.2-2.7l5.3-5.3c0.8-0.8 1.7-1.2 2.7-1.2 1.1 0 2 0.4 2.7 1.2l12.7 12.7 31.1-31.1c0.8-0.8 1.7-1.2 2.7-1.2 1.1 0 2 0.4 2.7 1.2l5.3 5.3c0.8 0.8 1.2 1.7 1.2 2.7C926-742.6 925.6-741.7 924.8-740.9z"/></svg>