<svg version="1.1" xmlns="http://www.w3.org/2000/svg">
    <defs>
        <symbol id="asian" viewBox="0 0 32.762 25.23">
            <path fill="#F5F5F5" d="M6.305 11.837l-4.617 1.764c0.044 0.345 0.108 0.486 0.183 0.817l5.184-2.348C6.916 12.03 6.437 11.876 6.305 11.837zM32.326 8.767c0-1.193-1.273-2.271-3.417-3.106l-0.526 0.199c2.227 0.79 3.592 1.811 3.592 2.907 0 2.446-6.812 4.516-14.873 4.516 -2.417 0-4.72-0.188-6.761-0.512l-8.237 2.715c1.739 5.602 7.802 9.744 14.998 9.744 8.547 0 15.502-5.846 15.502-13.036 0-0.844-0.097-2.372-0.287-3.271C32.321 8.869 32.326 8.817 32.326 8.767zM3.941 10.941c-0.927-0.585-1.715-1.499-1.715-2.175 0-2.449 6.813-4.52 14.875-4.52 0.313 0 0.623 0.006 0.93 0.011l0.748-0.335c-0.55-0.02-1.109-0.027-1.678-0.027 -8.539 0-15.227 2.139-15.227 4.871 0 0.069 0.004 0.105 0.015 0.125 -0.153 0.707-0.247 2.274-0.277 3.139L3.941 10.941zM29.514 0L0 13.186l30.189-11.56L29.514 0zM32.762 3.118l-0.675-1.627L2.573 14.681 32.762 3.118z"/>
        </symbol>
        <symbol id="bbq" viewBox="0 0 37.015 41.384">
            <path fill="#F5F5F5" d="M0 16.968h26.657v0.646c0 7.349-5.979 13.332-13.33 13.332C5.979 30.945 0 24.962 0 17.613V16.968zM24.716 21.474H1.938c1.613 4.745 6.107 8.174 11.39 8.174C18.614 29.648 23.106 26.218 24.716 21.474zM1.313 18.261c0.039 0.758 0.158 1.498 0.332 2.212h23.369c0.174-0.714 0.288-1.454 0.331-2.212H1.313zM23.753 30.933c-0.323-0.74-1.192-1.078-1.93-0.752 -0.742 0.326-1.08 1.188-0.755 1.932l2.778 6.332c0.325 0.738 1.189 1.078 1.93 0.752 0.741-0.324 1.078-1.189 0.756-1.93L23.753 30.933zM5.545 30.181c-0.741-0.326-1.605 0.012-1.93 0.752l-2.777 6.334c-0.323 0.74 0.013 1.605 0.752 1.93 0.742 0.326 1.605-0.014 1.931-0.752l2.78-6.332C6.625 31.369 6.287 30.507 5.545 30.181zM13.813 32.48c-0.715 0-1.294 0.58-1.294 1.293v6.316c0 0.715 0.579 1.295 1.294 1.295s1.293-0.58 1.293-1.295v-6.316C15.105 33.06 14.527 32.48 13.813 32.48zM18.393 11.658c-0.038-0.18-0.089-0.36-0.176-0.545 -0.161-0.367-0.4-0.734-0.858-1.105h-0.132l-0.045 1.65H13.65v-0.651c0.004-0.199-0.003-0.402 0.005-0.605 -0.193-0.202-0.382-0.406-0.65-0.606 -0.27 0.2-0.46 0.404-0.655 0.606 0.014 0.203 0.004 0.406 0.006 0.605v0.651H9.328c-0.063-0.621-0.218-1.242-0.614-1.863 -0.396 0.621-0.549 1.242-0.613 1.863h-2.64v1.127h2.643c0.062 0.627 0.221 1.245 0.61 1.866 0.392-0.621 0.551-1.239 0.612-1.866h3.029v0.651 0.607c0.196 0.201 0.39 0.403 0.649 0.607 0.258-0.204 0.45-0.406 0.646-0.607v-0.607 -0.651h3.531l0.045 1.651h0.132c0.457-0.369 0.693-0.738 0.854-1.105 0.087-0.183 0.142-0.361 0.177-0.546h18.625v-1.127H18.393zM11.403 8.063c0.252-1.722 0.492-3.5 1.484-4.413 0.462-0.487 1.306-0.763 2.144-0.653 0.842 0.104 1.627 0.501 2.339 0.966 0.705 0.5 1.504 0.994 2.384 1.289 0.864 0.292 1.895 0.582 3.008 0.119 0.537-0.249 0.996-0.711 1.211-1.216 0.231-0.505 0.302-1.012 0.303-1.492C24.263 1.698 24.025 0.812 23.61 0l-0.123 0.034c-0.008 0.881-0.038 1.748-0.226 2.52 -0.179 0.785-0.529 1.382-1.052 1.55 -0.523 0.216-1.325 0.175-2.107-0.019 -0.791-0.208-1.569-0.47-2.418-0.759 -0.858-0.283-1.709-0.536-2.581-0.745 -0.849-0.196-1.902-0.386-2.86 0.204 -0.93 0.608-1.279 1.688-1.364 2.599 -0.091 0.938 0.057 1.855 0.397 2.7L11.403 8.063z"/>
        </symbol>
        <symbol id="beer" viewBox="0 0 27 33.498">
            <path fill="#F5F5F5" d="M27 20.667V15.37c0-2.408-1.96-4.371-4.369-4.371 -0.083 0-0.166 0.01-0.306 0.029l-0.641 0.046v13.242l0.1 0.619 0.597 0.08c0.084 0.01 0.167 0.021 0.25 0.021C25.04 25.037 27 23.076 27 20.667zM25.617 15.37v5.297c0 1.496-1.108 2.742-2.549 2.953V12.417C24.509 12.628 25.617 13.871 25.617 15.37zM23.221 30.074H2.147v3.424h21.073V30.074zM22.716 8.941H2.652V29h20.063V8.941zM3.883 10.167h17.603v17.604H3.883V10.167zM8.774 13.153H6.928v12.653h1.847V13.153zM13.473 13.153h-1.844v12.653h1.844V13.153zM18.44 13.153h-1.843v12.653h1.843V13.153zM23.261 8.021c0 1.481-1.2 2.682-2.682 2.682 -0.165 0-0.325-0.02-0.477-0.047 -0.319 0.098-0.649 0.167-1.002 0.167 -0.503 0-0.975-0.119-1.405-0.317 -0.425 0.3-0.944 0.479-1.507 0.479 -0.979 0-1.822-0.54-2.276-1.334 -0.473 0.277-1.015 0.444-1.604 0.444 -1.188 0-2.218-0.657-2.769-1.62C9.078 8.696 8.568 8.837 8.024 8.837c-0.715 0-1.376-0.216-1.919-0.588C5.694 8.525 5.201 8.69 4.666 8.69c-0.167 0-0.327-0.017-0.482-0.044 0.104 0.213 0.16 0.442 0.16 0.685 0 1.003-0.97 1.814-2.171 1.814C0.973 11.146 0 10.334 0 9.331c0-0.605 0.355-1.135 0.897-1.466 -0.267-0.35-0.437-0.78-0.437-1.26 0-1.135 0.92-2.058 2.056-2.058 0.149 0 0.291 0.021 0.427 0.048 0.455-0.407 1.055-0.661 1.723-0.661 0.079 0 0.151 0.016 0.229 0.024 0.548-1.189 1.736-2.02 3.13-2.02 0.189 0 0.37 0.027 0.552 0.058C8.749 0.866 9.716 0 10.893 0c0.629 0 1.198 0.247 1.616 0.648 0.21-0.053 0.418-0.09 0.643-0.09 0.479 0 0.925 0.141 1.312 0.366 0.381-0.228 0.813-0.366 1.288-0.366 1.366 0 2.471 1.093 2.5 2.452 0.405-0.641 1.112-1.071 1.925-1.071 1.26 0 2.276 1.02 2.276 2.277 0 0.555-0.208 1.058-0.538 1.449 0.017 0.022 0.022 0.043 0.035 0.063C22.73 6.197 23.261 7.045 23.261 8.021zM15.337 5.88c0.018-0.007 0.034-0.014 0.045-0.018 -0.036-0.104-0.059-0.218-0.072-0.335 -0.039-0.007-0.078-0.014-0.118-0.022C15.248 5.624 15.298 5.75 15.337 5.88z"/>
        </symbol>
        <symbol id="breakfast" viewBox="0 0 40.575 40.005">
            <path fill="#F5F5F5" d="M33.451 28.095c-0.014 0.035-0.023 0.076-0.037 0.111 1.581 1.197 2.578 2.922 2.578 4.844 0 3.613-3.506 6.545-7.83 6.545 -1.928 0-3.694-0.586-5.061-1.554 -1.281 0.977-2.836 1.554-4.517 1.554 -1.038 0-2.025-0.226-2.937-0.623 -1.411 0.652-3.071 1.033-4.851 1.033 -5.133 0-9.293-3.114-9.293-6.955 0-1.564 0.7-3.006 1.867-4.167C1.325 27.356 0 24.96 0 22.252c0-2.29 0.946-4.363 2.476-5.869C0.965 15.062 0 13.052 0 10.799 0 6.823 3.001 3.6 6.708 3.6c1.734 0 3.308 0.711 4.5 1.871C12.252 2.293 15.186 0 18.651 0c2.084 0 3.973 0.833 5.38 2.188 1.207-0.914 2.619-1.452 4.131-1.452 3.929 0 7.19 3.552 7.879 8.234 2.675 1.604 4.534 5.074 4.534 9.111C40.575 23.32 37.445 27.622 33.451 28.095zM28.468 20.291c0-4.52-3.664-8.185-8.183-8.185 -4.517 0-8.178 3.665-8.178 8.185 0 4.517 3.661 8.177 8.178 8.177C24.804 28.468 28.468 24.808 28.468 20.291zM19.992 13.749c-0.616-0.077-1.312 0.058-1.788 0.481 -0.375 0.332-0.307 0.826 0.237 0.897 2.833 0.367 6.247 1.977 6.383 5.214 0.036 0.813 2.572 0.301 2.528-0.676C27.197 16.035 23.135 14.16 19.992 13.749z"/>
        </symbol>
        <symbol id="cocktail" viewBox="0 0 34.078 64.216">
            <path fill="#F5F5F5" d="M27.498 26.051c0.341 3.299-1.201 11.683-7.745 14.544 -1.149 0.648-2.387 1.121-3.685 1.365v19.342c3.848 0.154 6.713 0.738 6.713 1.439 0 0.816-3.908 1.475-8.737 1.475 -4.818 0-8.732-0.658-8.732-1.475 0-0.701 2.869-1.285 6.717-1.439v-19.32c-4.186-0.721-7.734-3.74-9.708-7.914 -0.029-0.061-0.052-0.117-0.079-0.178 -0.114-0.246-0.228-0.496-0.328-0.75 -1.392-3.294-1.56-6.556-1.178-7.846 0.182-2.641 0.889-5.173 2.149-7.385l0.223-0.396H9.51L7.979 8.438 0 1.229 1.115 0l8.4 7.596 1.676 9.919h4.443c-0.005-0.091-0.015-0.178-0.015-0.269 0-5.089 4.139-9.229 9.23-9.229 5.09 0 9.228 4.141 9.228 9.229C34.078 21.411 31.293 24.906 27.498 26.051zM6.291 31.396c0-0.745-0.604-1.346-1.348-1.346 -0.741 0-1.347 0.601-1.347 1.346 0 0.742 0.605 1.346 1.347 1.346C5.687 32.742 6.291 32.139 6.291 31.396zM10.982 26.251L9.773 19.08H4.024c-0.937 1.776-1.506 3.771-1.708 5.846C2.316 24.926 5.481 27.847 10.982 26.251zM12.92 32.742l-0.817 0.136 -0.253-1.509c-0.124-0.033-0.245-0.077-0.38-0.077 -0.802 0-1.451 0.648-1.451 1.45 0 0.8 0.649 1.449 1.451 1.449C12.271 34.191 12.92 33.542 12.92 32.742zM17.268 30.983c0-0.516-0.419-0.933-0.931-0.933 -0.517 0-0.933 0.417-0.933 0.933s0.416 0.931 0.933 0.931C16.849 31.914 17.268 31.499 17.268 30.983zM18.925 35.021c0-0.457-0.368-0.83-0.829-0.83 -0.456 0-0.828 0.373-0.828 0.83 0 0.459 0.372 0.828 0.828 0.828C18.557 35.849 18.925 35.48 18.925 35.021zM22.239 27.876c0-0.172-0.137-0.311-0.312-0.311 -0.173 0-0.311 0.139-0.311 0.311 0 0.17 0.138 0.31 0.311 0.31C22.103 28.186 22.239 28.046 22.239 27.876zM24 31.861c0-0.484-0.393-0.878-0.879-0.878 -0.485 0-0.882 0.394-0.882 0.878 0 0.487 0.396 0.881 0.882 0.881C23.607 32.742 24 32.349 24 31.861zM25.644 24.926c-0.201-2.055-0.763-4.024-1.684-5.786 -0.006 0.009-0.008 0.02-0.016 0.029h-1.111c0.031-0.033 0.06-0.058 0.088-0.089h-0.882c-0.052 0.029-0.103 0.06-0.15 0.089h-3.684c0.072-0.026 0.169-0.06 0.253-0.089h-2.005c0.007 0.029 0.008 0.06 0.013 0.089h-0.642c-0.004-0.029-0.008-0.06-0.013-0.089h-4.355l1.112 6.609c0.517-0.216 1.042-0.463 1.593-0.764C21.617 20.837 25.644 24.926 25.644 24.926zM33.456 17.246c0-4.745-3.859-8.607-8.605-8.607 -4.749 0-8.608 3.862-8.608 8.607 0 0.091 0.011 0.178 0.015 0.269h7.317c0.46-0.109 0.905-0.203 1.285-0.259 -0.105 0.083-0.237 0.172-0.354 0.259h0.062c0.084-0.069 0.182-0.162 0.262-0.227 0 0.001-0.006 0.003-0.006 0.003 0.005-0.002 0.007-0.003 0.007-0.003 0.003 0 0.003 0 0.003-0.003 0 0.003 0 0.003-0.003 0.003 0.015-0.014 0.026-0.022 0.039-0.032 -0.003 0.014-0.01 0.032-0.015 0.046 -0.025 0.064-0.068 0.145-0.098 0.213h0.029c0.03-0.082 0.059-0.178 0.088-0.254 0.003 0.019 0.007 0.037 0.009 0.055 -0.002-0.019-0.006-0.038-0.009-0.058 0.003-0.002 0.003-0.005 0.003-0.006 0.004 0.004 0.004 0.004 0.006 0.006 0.018 0.117 0.026 0.259 0.039 0.386l0.052 0.093c-0.03-0.16-0.067-0.329-0.089-0.473 0.4 0.506 0.845 1.183 1.285 1.905h-0.477c0.403 0.874 0.721 1.793 0.967 2.736v-1.908c1.1 1.895 2.053 3.818 2.053 3.818l-1.572 0.681c0.019 0.144 0.048 0.286 0.062 0.43h0.018c0.07 0.123 0.127 0.298 0.176 0.505C30.894 24.339 33.456 21.101 33.456 17.246zM24.924 17.205c1.966-1.568 5.195-5.471 5.195-5.471l-1.466-1.09c0 0-2.797 4.187-3.753 6.546 -0.006 0.015-0.011 0.032-0.018 0.049C24.898 17.226 24.909 17.22 24.924 17.205zM24.9 17.19c-0.006 0.015-0.016 0.03-0.02 0.046 0.005-0.017 0.018-0.034 0.022-0.054C24.903 17.186 24.9 17.187 24.9 17.19zM24.838 17.2c-1.571-1.968-5.474-5.195-5.474-5.195l-1.091 1.463c0 0 4.188 2.8 6.549 3.755 0.016 0.005 0.032 0.012 0.047 0.02C24.856 17.226 24.848 17.213 24.838 17.2zM24.814 17.221c0.019 0.005 0.033 0.014 0.052 0.021 -0.015-0.006-0.03-0.015-0.044-0.02C24.818 17.221 24.816 17.221 24.814 17.221zM31.445 13.411c0 0-4.564 2.261-6.552 3.828 2.503-0.369 7.284-2.143 7.284-2.143L31.445 13.411zM21.041 10.679c0 0 2.262 4.563 3.828 6.551 -0.367-2.501-2.142-7.284-2.142-7.284L21.041 10.679zM24.881 17.234c-0.004-0.021-0.007-0.036-0.012-0.058 0.005 0.02 0.008 0.036 0.012 0.053 0.931-2.352 1.779-7.376 1.779-7.376s-1.171-0.222-1.783-0.222c-0.011 0-0.032 0.003-0.032 0.003s-0.333 5.091 0.024 7.6c0.005 0.002 0.005 0.005 0.008 0.008C24.877 17.239 24.878 17.236 24.881 17.234zM24.866 17.245c-0.021 0.002-0.037 0.002-0.058 0.007 0.02-0.005 0.036-0.007 0.051-0.01 -2.353-0.932-7.376-1.781-7.376-1.781s-0.22 1.169-0.22 1.785c0 0.012 0.002 0.033 0.002 0.033s5.091 0.332 7.598-0.027c0.003-0.002 0.006-0.005 0.006-0.006L24.866 17.245zM24.89 17.247c0.018-0.001 0.036-0.002 0.054-0.005 -0.015 0.003-0.034 0.005-0.05 0.008 2.354 0.932 7.379 1.781 7.379 1.781l0.218-1.785c0 0-0.001-0.022-0.001-0.033 -2.538-0.339-5.092-0.332-7.6 0.029 -0.005 0-0.005 0.003-0.007 0.004C24.885 17.247 24.885 17.247 24.89 17.247zM24.885 17.252c0.014 0.014 0.021 0.027 0.032 0.041 1.567 1.967 5.473 5.194 5.473 5.194l1.091-1.466c0 0-4.187-2.797-6.548-3.752 -0.015-0.006-0.029-0.014-0.048-0.02 0.015 0.006 0.024 0.008 0.033 0.014C24.909 17.258 24.898 17.256 24.885 17.252zM24.874 17.256c-0.008 0.015-0.015 0.032-0.02 0.046 0 0.003-0.003 0.006-0.003 0.01C24.856 17.293 24.866 17.273 24.874 17.256zM24.874 17.245L24.874 17.245v-0.003h0.001 -0.001l0 0C24.874 17.245 24.874 17.245 24.874 17.245L24.874 17.245 24.874 17.245zM24.883 17.247C24.883 17.247 24.883 17.247 24.883 17.247h-0.002C24.883 17.247 24.883 17.247 24.883 17.247zM24.881 17.252c0 0.001 0 0.004 0.002 0.006 0 0 0 0.003 0.002 0.006 0-0.006 0-0.006-0.002-0.008C24.883 17.253 24.883 17.253 24.881 17.252zM24.881 17.242c0 0 0 0-0.003 0 0.003 0 0.003 0 0.003 0.003V17.242L24.881 17.242 24.881 17.242zM24.883 17.25c0 0 0 0 0.002 0l0 0c0.005 0 0.005 0 0.009 0 -0.003 0-0.004-0.003-0.004-0.003C24.885 17.247 24.885 17.247 24.883 17.25zM24.881 17.25L24.881 17.25c-0.003 0-0.003 0-0.004 0v0.002c0.001 0 0.004 0 0.004 0C24.881 17.25 24.881 17.25 24.881 17.25zM24.874 17.253c0.001 0 0.003 0 0.003-0.001V17.25C24.877 17.252 24.874 17.252 24.874 17.253zM24.869 17.25c0 0-0.003 0-0.006 0.002 0 0.001-0.004 0.001-0.004 0.004 0.002 0 0.007-0.003 0.007-0.003C24.869 17.253 24.869 17.252 24.869 17.25zM24.878 17.25c0.003 0 0.003 0 0.003 0l0 0H24.878zM24.883 17.256c0.012 0.014 0.023 0.023 0.034 0.037 0.001 0.002 0.001 0.005 0.005 0.007C24.909 17.285 24.898 17.271 24.883 17.256L24.883 17.256zM24.869 17.239c-0.013-0.017-0.024-0.031-0.036-0.047 0 0.004 0.001 0.006 0.005 0.008C24.848 17.213 24.859 17.224 24.869 17.239L24.869 17.239zM24.881 17.252c0.002 0.001 0.002 0.001 0.002 0.004 0-0.003 0-0.003 0-0.004h0.002c0 0 0 0 0-0.002 -0.002 0-0.002 0-0.002 0C24.883 17.252 24.883 17.252 24.881 17.252zM24.877 17.242L24.877 17.242h-0.002H24.877zM24.881 17.25v0.002l0 0V17.25zM24.881 17.247L24.881 17.247 24.881 17.247v0.003l0 0C24.881 17.247 24.881 17.247 24.881 17.247zM24.881 17.25h0.002l0 0H24.881L24.881 17.25zM24.869 17.242L24.869 17.242 24.869 17.242 24.869 17.242 24.869 17.242zM24.869 17.239c0 0 0 0.002 0 0.003 0 0 0 0 0.002 0C24.869 17.241 24.869 17.239 24.869 17.239zM24.871 17.253c0 0.003 0.003 0.003 0.003 0.003 0 0.002 0 0.002 0 0.005 0-0.003 0-0.003 0-0.003 0-0.002 0-0.002 0-0.005C24.874 17.253 24.874 17.253 24.871 17.253zM24.874 17.247L24.874 17.247c0-0.001 0-0.001 0-0.002 0 0-0.003 0-0.003 0.001C24.874 17.246 24.874 17.246 24.874 17.247c-0.003-0.001-0.005 0-0.005-0.001 0 0.001 0 0.004 0 0.004C24.871 17.25 24.874 17.25 24.874 17.247L24.874 17.247zM24.869 17.245C24.869 17.245 24.869 17.245 24.869 17.245l0.002 0.001C24.869 17.245 24.869 17.245 24.869 17.245zM24.869 17.234v-0.005c0 0.003 0 0.005 0 0.01 0 0 0 0.002 0.005 0.003C24.871 17.239 24.871 17.236 24.869 17.234zM24.881 17.241L24.881 17.241v-0.002 -0.003c0-0.002 0-0.002 0-0.007 0 0.003 0 0.005 0 0.005C24.881 17.236 24.881 17.239 24.881 17.241zM24.874 17.247L24.874 17.247 24.874 17.247 24.874 17.247 24.874 17.247zM24.875 17.245L24.875 17.245c-0.001 0.001-0.001 0.002-0.001 0.002 0.001 0 0.003 0 0.003-0.001l0 0C24.877 17.245 24.877 17.245 24.875 17.245zM24.877 17.246c0-0.001 0.001-0.001 0.004-0.001L24.877 17.246c0-0.001 0-0.001 0-0.004l-0.002 0.003C24.877 17.245 24.877 17.245 24.877 17.246zM24.885 17.239c0.016-0.014 0.028-0.025 0.046-0.037 -0.002 0.002-0.007 0.003-0.007 0.003C24.909 17.218 24.9 17.228 24.885 17.239L24.885 17.239zM24.866 17.253c-0.012 0.011-0.021 0.021-0.033 0.032 0.012-0.011 0.021-0.021 0.036-0.032H24.866zM24.871 17.253c-0.002-0.001-0.002-0.001-0.002-0.003 0 0.002 0 0.003 0 0.003l0 0v0.003C24.869 17.256 24.869 17.256 24.871 17.253L24.871 17.253zM24.877 17.246L24.877 17.246 24.877 17.246c0 0.001 0 0.001 0.001 0.004L24.877 17.246C24.877 17.247 24.877 17.247 24.877 17.246zM24.881 17.247L24.881 17.247C24.881 17.246 24.881 17.246 24.881 17.247L24.881 17.247zM24.881 17.247c0-0.001 0-0.001 0-0.002l0.002 0.001c0-0.001 0-0.004 0-0.004 -0.002 0-0.002 0-0.002 0.003 -0.003 0-0.004 0.001-0.004 0.001C24.877 17.247 24.878 17.247 24.881 17.247zM24.878 17.247l0.003 0.003v-0.003l0 0H24.878zM24.871 17.25h0.003l0 0H24.871zM24.874 17.25L24.874 17.25c0.001 0 0 0 0-0.003V17.25L24.874 17.25zM24.875 17.247h0.002l0 0C24.877 17.247 24.877 17.247 24.875 17.247zM24.877 17.246L24.877 17.246 24.877 17.246 24.877 17.246zM24.874 17.25c0 0 0 0 0-0.003V17.25L24.874 17.25zM24.871 17.253c0.003 0 0.003 0 0.003 0V17.25l0 0C24.874 17.25 24.871 17.252 24.871 17.253zM24.874 17.242L24.874 17.242 24.874 17.242 24.874 17.242zM24.885 17.239c-0.002 0-0.002 0.002-0.002 0.002v-0.002c0 0 0 0-0.002 0 0.002 0.003 0.002 0.003 0.002 0.003S24.883 17.241 24.885 17.239zM24.881 17.242C24.881 17.242 24.881 17.242 24.881 17.242L24.881 17.242C24.881 17.242 24.881 17.242 24.881 17.242L24.881 17.242zM24.869 17.242L24.869 17.242h-0.003c0 0-0.003 0-0.007 0 0.002 0 0.004 0.003 0.007 0.003C24.866 17.245 24.869 17.245 24.869 17.242zM24.874 17.242L24.874 17.242c0 0 0.001 0 0.003 0l0 0H24.874zM24.874 17.242c-0.003 0-0.005 0-0.005 0l0 0C24.869 17.242 24.871 17.242 24.874 17.242L24.874 17.242zM24.874 17.242h-0.003H24.874L24.874 17.242zM24.881 17.241c0 0-0.004 0-0.004 0.001l0 0C24.878 17.242 24.881 17.242 24.881 17.241zM24.877 17.242L24.877 17.242C24.877 17.242 24.877 17.242 24.877 17.242S24.877 17.242 24.877 17.242zM24.89 17.242c0-0.001 0.004-0.003 0.004-0.003 -0.003 0-0.004 0-0.009 0 0 0.002-0.002 0.003-0.002 0.003C24.885 17.242 24.885 17.242 24.89 17.242zM26.17 19.169c0.164 0.271 0.33 0.55 0.49 0.828v-0.828H26.17z"/>
        </symbol>
        <symbol id="coffee" viewBox="0 0 42.177 35.027">
            <path fill="#F5F5F5" d="M21.569 6.655c-2.37 2.369-4.154 4.994-5.275 7.556 0.385-0.014 0.771-0.026 1.163-0.026 0.637 0 1.264 0.026 1.882 0.066 0.73-1.018 1.607-1.974 2.712-2.769 0.73-0.525 1.578-0.95 2.499-1.222 0.921-0.266 1.917-0.339 2.868-0.23 0.238 0.027 0.474 0.07 0.704 0.12 0.116 0.024 0.231 0.051 0.345 0.083l0.285 0.074c0.274 0.072 0.586 0.129 0.871 0.159 0.58 0.069 1.145 0.027 1.697-0.11 1.109-0.268 2.182-1.013 3.138-2.001 0.958-0.991 1.797-2.197 2.563-3.472 0.738-1.23 1.408-2.527 2.059-3.875C34.875-1.502 27.439 0.784 21.569 6.655zM40.253 1.921c-0.332-0.335-0.701-0.62-1.1-0.864C39.126 2.554 38.866 4.04 38.452 5.5c-0.449 1.527-1.091 3.035-2.063 4.429 -0.488 0.692-1.065 1.354-1.764 1.932 -0.693 0.585-1.519 1.063-2.43 1.374 -0.912 0.312-1.9 0.413-2.844 0.353 -0.477-0.037-0.924-0.113-1.393-0.227l-0.271-0.068c-0.07-0.02-0.143-0.033-0.216-0.049 -0.143-0.028-0.287-0.05-0.427-0.066 -1.132-0.146-2.247 0.146-3.335 0.803 -0.342 0.206-0.676 0.45-1.004 0.714 5.638 1.121 9.922 4.003 11.025 7.546 0.608-0.506 1.205-1.053 1.785-1.633C41.987 14.141 44.107 5.775 40.253 1.921zM39.079 1.008c0.025 0.013 0.049 0.032 0.074 0.049 0.002-0.076 0.011-0.151 0.011-0.225C39.136 0.89 39.106 0.948 39.079 1.008zM8.417 19.336c1.585-0.385 3.29-0.578 5.069-0.289 0.889 0.146 1.788 0.447 2.631 0.902 0.838 0.469 1.595 1.123 2.192 1.869 0.147 0.188 0.285 0.383 0.414 0.582 0.063 0.1 0.125 0.199 0.184 0.301l0.149 0.256c0.143 0.246 0.323 0.504 0.502 0.727 0.362 0.461 0.789 0.83 1.279 1.125 0.973 0.594 2.259 0.826 3.634 0.803 1.378-0.021 2.822-0.283 4.27-0.645 1.389-0.346 2.781-0.789 4.194-1.283 -1.198-4.748-8.073-8.385-16.377-8.385 -8.141 0-14.903 3.499-16.292 8.11 1.127-0.924 2.366-1.697 3.667-2.375C5.339 20.316 6.83 19.725 8.417 19.336zM24.726 28.092c-0.836 0.145-1.713 0.205-2.614 0.119 -0.902-0.078-1.827-0.322-2.69-0.75 -0.864-0.424-1.635-1.049-2.259-1.76 -0.312-0.365-0.572-0.734-0.823-1.146l-0.143-0.236c-0.037-0.064-0.079-0.125-0.119-0.188 -0.082-0.119-0.168-0.238-0.256-0.352 -0.697-0.9-1.69-1.484-2.925-1.789 -1.23-0.305-2.639-0.322-4.067-0.205 -1.432 0.119-2.896 0.383-4.367 0.707 -1.402 0.307-2.807 0.678-4.241 1.066C0.077 24.082 0 24.615 0 25.162c0 5.447 7.414 9.865 16.559 9.865 9.147 0 16.562-4.418 16.562-9.865 0-0.473-0.059-0.936-0.168-1.391 -1.078 1.039-2.313 1.906-3.637 2.646C27.917 27.18 26.397 27.793 24.726 28.092zM0 23.619c0.074-0.02 0.147-0.039 0.221-0.061 0.014-0.047 0.03-0.1 0.045-0.15C0.178 23.48 0.085 23.547 0 23.619zM32.936 23.684c0.007 0.029 0.012 0.059 0.017 0.088 0.057-0.053 0.114-0.1 0.168-0.152C33.058 23.643 32.995 23.66 32.936 23.684z"/>
        </symbol>
        <symbol id="dessert" viewBox="0 0 19.564 42.768">
            <path fill="#F5F5F5" d="M9.354 13.916c-0.895 1.421-2.473 2.374-4.28 2.374 -0.901 0-1.739-0.255-2.472-0.668l7.305 27.146 7.161-27.432c-0.894 0.604-1.971 0.954-3.133 0.954C12.041 16.29 10.377 15.35 9.354 13.916zM17.591 5.012c0.011-0.127 0.04-0.253 0.04-0.384 0-2.071-1.682-3.749-3.752-3.749 -1.498 0-2.778 0.883-3.378 2.149C10.212 1.313 8.729 0 6.926 0 4.922 0 3.292 1.625 3.292 3.632c0 0.482 0.101 0.939 0.271 1.36C1.504 5.641 0 7.538 0 9.813c0 1.898 1.056 3.532 2.602 4.402 0.732 0.413 1.571 0.668 2.472 0.668 1.808 0 3.386-0.954 4.28-2.375 1.023 1.436 2.687 2.375 4.582 2.375 1.162 0 2.239-0.35 3.133-0.954 1.505-1.008 2.496-2.723 2.496-4.671C19.564 7.555 18.787 6.046 17.591 5.012z"/>
        </symbol>
        <symbol id="drink" viewBox="0 0 36.327 61.975">
            <path fill="#F5F5F5" d="M7.032 57.118h16.57l4.971-33.556H2.059L7.032 57.118zM7.025 61.975h16.583v-3.199H7.025V61.975zM28.999 17.349h-7.283l2.6-11.392 12.012-4.401L35.756 0 22.899 4.713l-2.882 12.636H2.071C0.926 17.349 0 18.276 0 19.419c0 1.146 0.926 2.071 2.071 2.071h26.928c1.145 0 2.071-0.925 2.071-2.071C31.07 18.276 30.143 17.349 28.999 17.349z"/>
        </symbol>
        <symbol id="fruit" viewBox="0 0 33.622 44.171">
            <path fill="#F5F5F5" d="M33.622 35.765c0 4.641-3.763 8.406-8.404 8.406s-8.405-3.766-8.405-8.406c0-2.936 1.506-5.137 3.787-6.361 -3.735-6.151-8.334-15.716-5.85-22.434 0.005-0.01 0.009-0.018 0.011-0.025 -4.656 6.438-5.495 16.801-5.627 21.401 0.146 0.01 0.29 0.023 0.435 0.043 4.094 0.566 7.244 3.127 7.244 7.377 0 4.641-3.765 8.406-8.407 8.406C3.765 44.171 0 40.406 0 35.765c0-4.404 3.387-7.154 7.694-7.43 0.128-5.19 1.122-17.539 7.476-24.112C17.877 1.419 21.26 0 25.218 0v1.427c-0.278 0-0.555 0.011-0.833 0.025 -2.422 0.506-4.362 1.357-5.8 2.538 1.236 0.143 2.291 0.458 3.282 0.835 1.629 0.647 2.952 1.587 4.084 2.711 1.126 1.127 2.051 2.447 2.72 4.025 0.338 0.792 0.623 1.627 0.84 2.55 0.211 0.935 0.372 1.901 0.484 3.049 -1.513 0.542-2.74 0.618-3.871 0.622 -1.121-0.019-2.099-0.194-3.001-0.453 -1.795-0.519-3.205-1.43-4.36-2.588 -1.146-1.169-2.04-2.578-2.586-4.323 -0.173-0.578-0.316-1.185-0.422-1.825 -1.419 6.137 2.791 14.652 6.188 20.227 1.008-0.334 2.114-0.512 3.274-0.512 0.395 0 0.782 0.027 1.162 0.08C30.473 28.955 33.622 31.515 33.622 35.765zM16.298 5.751c0 0 2.664 3.67 9.117 7.849 0 0-6.586-6.259-8.648-8.48L16.298 5.751z"/>
        </symbol>
        <symbol id="junk" viewBox="0 0 31.738 31.381">
            <path fill="#F5F5F5" d="M4.269 15.548c-0.131-7.399 6.348-7.93 6.348-7.93 6.512 0.604 7.361-7.334 7.365-7.365 -4.759-0.876-9.852 0.52-13.535 4.199 -4.933 4.935-5.755 12.403-2.504 18.204C4.351 20.488 4.269 15.548 4.269 15.548zM27.202 26.844c-6.049 6.051-15.859 6.051-21.904-0.002 -1.03-1.027-1.871-2.172-2.55-3.381 2.445-2.209 2.368-7.234 2.368-7.234C4.979 8.698 11.57 8.158 11.57 8.158c6.63 0.615 7.493-7.461 7.496-7.493 2.979 0.548 5.83 1.971 8.136 4.274C33.251 10.986 33.251 20.793 27.202 26.844zM19.699 12.441c-1.903-1.905-4.995-1.905-6.899 0 -1.908 1.906-1.908 4.997 0 6.901 1.904 1.908 4.996 1.908 6.902 0C21.606 17.438 21.606 14.347 19.699 12.441z"/>
        </symbol>
        <symbol id="main" viewBox="0 0 43.403 26.903">
            <path fill="#F5F5F5" d="M35.066 13.453C35.066 6.035 29.033 0 21.615 0S8.164 6.035 8.164 13.453c0 7.417 6.034 13.45 13.452 13.45S35.066 20.87 35.066 13.453zM33.896 13.453c0 6.77-5.507 12.28-12.28 12.28 -6.775 0-12.28-5.51-12.28-12.28 0-6.773 5.505-12.285 12.28-12.285C28.389 1.168 33.896 6.68 33.896 13.453zM21.615 2.032c-6.306 0-11.421 5.113-11.421 11.421 0 6.305 5.115 11.417 11.421 11.417 6.305 0 11.421-5.111 11.421-11.417C33.036 7.146 27.92 2.032 21.615 2.032zM5.955 1.443l-0.34 6.412H4.144L4.017 1.311H2.998L2.839 7.855H1.584L1.063 1.442 0 1.443V8.08h0.009c0.067 2.116 1.113 2.322 2.528 2.925H2.511v4.433 0.004 9.609c1.215 1.217 2.153 0.004 2.153 0.004l0.003-9.791H4.664V11.01c0 0 2.321-0.813 2.388-2.93h0.009L7.059 1.443H5.955zM40.47 1h-1.501 -1.503v24.907h3.004V12.74h2.605C44.57 6.195 40.47 1 40.47 1z"/>
        </symbol>
        <symbol id="meat" viewBox="0 0 26.556 42.515">
            <path fill="#F5F5F5" d="M14.86 34.261v3.715c1.423 0 2.578 1.017 2.578 2.27 0 1.254-1.155 2.27-2.578 2.27 -0.601 0-1.146-0.188-1.584-0.49 -0.437 0.303-0.98 0.49-1.584 0.49 -1.422 0-2.579-1.016-2.579-2.27 0-1.253 1.157-2.27 2.579-2.27v-3.705C1.827 32.781 0 17.409 0 11.42 0 5.122 5.955 0 13.276 0c7.32 0 13.279 5.122 13.279 11.42C26.556 17.396 24.282 32.708 14.86 34.261zM13.276 15.914c5.715 0 10.539-3.27 10.539-7.139 0-3.867-4.824-7.14-10.539-7.14 -5.712 0-10.539 3.272-10.539 7.14C2.737 12.645 7.564 15.914 13.276 15.914zM18.508 8.531c0-1.699-2.342-3.077-5.231-3.077 -2.888 0-5.234 1.377-5.234 3.077 0 1.7 2.347 3.077 5.234 3.077C16.166 11.608 18.508 10.231 18.508 8.531z"/>
        </symbol>
        <symbol id="pasta" viewBox="0 0 41.429 37.42">
            <path fill="#F5F5F5" d="M4.839 22.961c0 7.186 8.191 13.008 18.293 13.008 10.105 0 18.297-5.822 18.297-13.008M41.429 17.601H4.897v4.832h36.532V17.601zM27.866 35.625h-9.408v1.795h9.408V35.625zM18.458 21.877L7.087 0 6.017 0.558l11.367 21.875L18.458 21.877zM17.523 19.911L0.892 1.706 0 2.521l16.63 18.205L17.523 19.911zM25.073 19.198c1.036 0.859 2.335 1.445 3.675 1.445 0.567 0 2.292 0 2.473-1.088 0.209-1.244-2.055-2.621-3.938-3.399 0.254-0.296 0.523-0.583 0.797-0.856 0.221 0.277 0.424 0.568 0.625 0.846 0.589 0.833 1.101 1.554 1.826 1.554 0.012 0 0.027 0 0.042 0 0.667-0.027 1.14-0.689 1.442-1.193 1.62-2.697 2.311-3.92 1.674-4.586 -0.512-0.544-1.603-0.26-4.014 1.043 -0.545 0.299-1.053 0.654-1.527 1.053C27.372 13.27 26.38 12.737 25 12.963c-1.453 0.248-2.244 1.205-2.131 2.552 0.032 0.372 0.127 0.759 0.283 1.142 -1.063 1.306-1.168 3.407-1.173 3.508l0.913 0.041c0-0.02 0.08-1.56 0.731-2.64 0.222 0.346 0.481 0.683 0.773 0.997 -0.023 0.036-0.048 0.067-0.07 0.104 -0.689 1.042-1.536 2.299-1.948 2.295 -0.044-0.006-0.299-0.072-0.67-0.955 -0.068-0.16-0.129-0.316-0.174-0.463 0.037-0.45-0.041-0.954-0.201-1.481 0.088-0.521 0.387-0.838 0.678-1.154 0.75-0.807 1.2-1.563-0.383-3.337 -1.391-1.562-2.452-2.08-3.167-1.524 -0.628 0.487-0.561 1.704-0.078 2.425l0.082 0.124c1.087 1.615 1.661 2.763 1.938 3.573 -0.028 0.401 0.022 0.876 0.194 1.449 -0.027 0.107-0.062 0.193-0.102 0.258 -0.279 0.469-1.088 0.492-1.721 0.436l-0.086 0.91c1.061 0.096 1.847-0.08 2.323-0.535 0.266 0.547 0.667 1.125 1.282 1.184 0.035 0.004 0.07 0.008 0.103 0.008C23.287 21.877 24.008 20.799 25.073 19.198zM26.683 16.897c2.342 0.896 3.704 2.123 3.639 2.505 -0.012 0.064-0.324 0.326-1.574 0.326 -1.197 0-2.303-0.542-3.171-1.292C25.919 17.936 26.286 17.408 26.683 16.897zM24.293 16.827c0.408-0.272 0.886-0.352 1.471-0.229 -0.302 0.402-0.581 0.798-0.845 1.184 -0.26-0.302-0.479-0.616-0.658-0.932C24.273 16.841 24.285 16.836 24.293 16.827zM20.948 14.18c1.153 1.29 0.913 1.546 0.396 2.104 -0.153 0.165-0.329 0.351-0.485 0.578 -0.458-0.967-1.077-1.945-1.637-2.778l-0.079-0.119c-0.275-0.414-0.277-1.073-0.12-1.195 0.011-0.011 0.036-0.016 0.071-0.016C19.297 12.754 19.868 12.974 20.948 14.18zM30.111 13.769c2.375-1.283 2.882-1.213 2.891-1.262 0.104 0.406-0.979 2.211-1.781 3.544 -0.431 0.717-0.662 0.731-0.689 0.732 -0.256 0-0.713-0.645-1.08-1.164 -0.21-0.296-0.436-0.614-0.689-0.928C29.181 14.343 29.628 14.031 30.111 13.769zM27.468 14.629c-0.389 0.378-0.75 0.779-1.088 1.187 -0.955-0.301-1.79-0.242-2.491 0.184 -0.056-0.194-0.097-0.382-0.11-0.562 -0.073-0.875 0.386-1.401 1.373-1.572 0.16-0.027 0.316-0.038 0.464-0.038C26.365 13.827 26.962 14.156 27.468 14.629z"/>
        </symbol>
        <symbol id="pizza" viewBox="0 0 30.406 31.832">
            <path fill="#F5F5F5" d="M27.521 22.804c-0.275 0.912-2.128 1.678-2.128 1.678 -5.882 2.773-12.758 3.484-19.463 1.436 -1.26-0.385-2.451-0.883-3.607-1.424L13.85 0l4.987 8.319c-0.145 0.066-0.274 0.143-0.374 0.261 -0.636 0.742-0.013 2.313 1.392 3.509 0.614 0.523 1.272 0.88 1.88 1.059L27.521 22.804zM14.627 10.141c-0.677 0.801-0.584 2.004 0.219 2.686 0.805 0.685 2 0.586 2.684-0.215 0.681-0.802 0.583-2.003-0.216-2.684C16.511 9.242 15.312 9.342 14.627 10.141zM13.214 20.179c0.975-1.143 0.835-2.858-0.306-3.829 -1.141-0.974-2.854-0.833-3.827 0.307 -0.971 1.144-0.834 2.854 0.307 3.827C10.532 21.457 12.244 21.318 13.214 20.179zM19.91 21.146c0.63-0.746 0.54-1.861-0.201-2.494s-1.857-0.543-2.496 0.199c-0.629 0.744-0.54 1.859 0.201 2.492C18.162 21.978 19.274 21.888 19.91 21.146zM30.406 27.302l-1.592-2.85c-14.897 8.336-26.626 1.477-27.12 1.178L0.85 27.027l0.848-1.396L0 28.419c0.354 0.213 5.741 3.412 13.849 3.412C18.594 31.832 24.268 30.734 30.406 27.302z"/>
        </symbol>
        <symbol id="salad" viewBox="0 0 33.078 31.116">
            <path fill="#F5F5F5" d="M12.931 30.299v0.816h10.121v-0.816c5.182-1.85 9.057-6.439 9.865-12.029H3.067C3.875 23.86 7.75 28.45 12.931 30.299zM33.078 16.1H2.907c0 0.368 0.017 0.729 0.043 1.088h30.082C33.06 16.829 33.078 16.468 33.078 16.1zM16.395 7.892c-1.275-2.236-2.22-2.217-2.762-1.169l0.535 1.623C14.168 8.346 16.162 10.182 16.395 7.892zM30.138 6.616c-1.336-1.256-0.555 1.422 0 2.159 0.56 0.736-2.98 1.686-3.152-1.723 -0.174-3.404-3.813-2.999-4.262-0.437 -0.026 0.15-0.052 0.296-0.08 0.431 0.56 0.359 0.985 1.056 1.041 2.164 0.129 2.508 2.074 2.655 2.873 2.265 0.093 0.198 0.193 0.373 0.283 0.496 0.559 0.738-2.98 1.686-3.156-1.722 -0.056-1.107-0.481-1.806-1.041-2.167 -0.646-0.41-1.471-0.364-2.128 0.053 -0.533 0.339-0.956 0.909-1.093 1.678 -0.446 2.564-0.934 2.804-3.011-0.857 -0.005-0.013-0.012-0.017-0.018-0.028 -0.233 2.293-2.227 0.455-2.227 0.455l-0.535-1.62c-0.333 0.651-0.513 1.694-0.513 2.846 0 3.013-2.25 0.935-2.25 0.935l-0.868-2.626c0 0-0.781-0.659-1.279-0.886C8.423 7.896 8.229 7.92 8.371 8.342c-0.537 0.691-0.607 1.979-0.614 2.517 -0.264-0.194-0.604-0.398-1.043-0.608C4.289 9.098 4.46 13.261 4.46 13.261l-0.003 1.89h24.598l1.6-2.155 0.438-0.595c0 0-2.906-1.34-4.252-2.587 -0.316-0.291-0.512-0.364-0.622-0.302 -0.224-0.812-0.19-1.491 0.622-0.736 1.346 1.246 4.057 5.783 4.057 5.783l-0.439 0.592h1.697C32.156 15.15 34.591 10.801 30.138 6.616zM19.423 8.775c0.137-0.772 0.56-1.343 1.093-1.676 -0.241-0.371-0.505-0.813-0.806-1.343 -2.077-3.663-3.291-1.355-3.291 1.653 0 0.18-0.008 0.335-0.024 0.481 0.006 0.009 0.013 0.016 0.018 0.024C18.49 11.579 18.977 11.339 19.423 8.775zM10.871 10.502c0 0 2.25 2.079 2.25-0.932 0-1.152 0.179-2.197 0.513-2.848l-0.331-1.005c0 0-2.598-2.185-1.34 0.039 1.263 2.228-0.044 3.447-0.044 3.447s0.518-0.996-1.908-2.151c-0.556-0.262-0.97-0.24-1.287-0.06 0.498 0.229 1.279 0.884 1.279 0.884L10.871 10.502zM8.913 13.19L3.141 0 0 1.372l5.775 13.19L8.913 13.19z"/>
        </symbol>
        <symbol id="seafood" viewBox="0 0 40.426 23.006">
            <path fill="#F5F5F5" d="M11.073 21.329c-5.274-2.506-9.332-7.123-10.833-9 1.061 0.99 3.112 2.617 5.077 2.617 0.371 0 0.737-0.059 1.096-0.188l-0.097-0.703C3.473 15.092 0.037 11.159 0 11.118c0 0 4.583-6.573 11.57-9.665C12.186 3.626 15.01 14.62 11.073 21.329zM9.06 9.995c0-0.969-0.787-1.754-1.757-1.754 -0.968 0-1.756 0.785-1.756 1.754s0.788 1.756 1.756 1.756C8.272 11.75 9.06 10.963 9.06 9.995zM34.236 8.954C31.16 5.563 25.031 0 17.976 0c-1.972 0-3.871 0.438-5.652 1.14 0.604 2.048 3.64 13.353-0.506 20.523 1.926 0.82 3.998 1.344 6.158 1.344 7.479 0 13.909-6.246 16.78-9.531l5.67 3.236V6.295L34.236 8.954z"/>
        </symbol>
        <symbol id="snack" viewBox="0 0 42.819 26.422">
            <path fill="#F5F5F5" d="M41.097 22.426H1.827c0 0-0.766 3.996 1.217 3.996 1.981 0 35.221 0 36.84 0S41.097 22.426 41.097 22.426zM41.607 14.225H1.217v2.977h40.391V14.225zM20.738 19.02c0.311-0.014 0.536 0.121 0.644 0.25 0.228-0.035 0.59-0.111 1.155-0.242 1.314-0.309 1.873-0.631 2.311-0.896h-4.655c0.142 0.209 0.262 0.41 0.348 0.566C20.605 18.819 20.694 18.985 20.738 19.02zM17.503 18.131h-1.846c0.251 0.234 0.356 0.336 0.858 0.35C16.878 18.504 17.199 18.338 17.503 18.131zM34.337 18.131h-1.361l0.867 0.291L34.337 18.131zM6.391 19.77c1.059-0.342 1.991-0.865 2.887-1.371 0.161-0.092 0.32-0.18 0.48-0.268H2.92C3.321 18.79 4.521 20.368 6.391 19.77zM1.676 18.397l0.545-0.266H0v2.975h5.441C3.515 21.036 2.175 19.42 1.676 18.397zM42.819 18.131h-4.322l1.771 0.953 -0.569 1.068L36.35 18.36l-2.372 1.393 -3.002-1.014h-4.053c-0.74 0-0.954 0.133-1.395 0.398 -0.484 0.301-1.158 0.711-2.715 1.074 -1.666 0.389-2.123 0.445-2.433 0.047l-0.082-0.109c-0.444-0.166-0.663-0.564-0.829-0.873 -0.122-0.225-0.259-0.482-0.49-0.74 0 0.016-0.229 0.188-0.382 0.305 -0.49 0.373-1.18 0.889-2.119 0.857 -0.966-0.031-1.333-0.379-1.659-0.686 -0.27-0.254-0.547-0.521-1.473-0.701 -1.068-0.209-2.184 0.42-3.47 1.146 -0.91 0.512-1.936 1.088-3.115 1.469 -0.36 0.117-0.702 0.166-1.03 0.18h37.087V18.131zM5.57 21.12c0.051 0 0.107-0.01 0.162-0.014H5.441C5.486 21.11 5.525 21.12 5.57 21.12zM2.769 17.862l-0.547 0.27H2.92C2.831 17.987 2.781 17.881 2.769 17.862zM40.855 12.958C37.814 5.77 32.146 0.61 23.991 0.055 23.507 0.018 20.686 0 20.191 0 11.587 0 4.996 5.695 1.668 13.057L40.855 12.958z"/>
        </symbol>
        <symbol id="soup" viewBox="0 0 31.165 26.527">
            <path fill="#F5F5F5" d="M31.165 24.367c0 1.191-6.978 2.16-15.583 2.16C6.976 26.527 0 25.558 0 24.367c0-0.563 1.539-1.072 4.065-1.455 -1.051-0.848-1.803-1.998-1.803-3.266L0 12.169c0-0.213 0.018-0.421 0.043-0.628 0.014 0.014 0.032 0.022 0.044 0.032 0-0.01-0.002-0.019-0.002-0.032 0-3.731 14.08-3.771 14.678-3.771 0.321 0 4.536 0.012 8.367 0.603L26.116 9c1.931 0.558 3.326 1.367 3.326 2.541 0 0.014-0.004 0.022-0.005 0.032 0.015-0.01 0.032-0.019 0.046-0.032 0.027 0.207 0.044 0.415 0.044 0.628l-2.264 7.477c0 1.186-0.575 2.264-1.429 3.094C29.1 23.136 31.165 23.718 31.165 24.367zM22.136 13.18c3.295-0.454 5.24-1.149 5.602-1.639 -0.252-0.343-1.273-0.783-2.986-1.174 -2.576-0.69-7.3-0.922-9.988-0.922 -7.767 0-12.394 1.312-12.974 2.096 0.58 0.785 5.207 2.096 12.974 2.096 1.064 0 5.798-0.364 7.164-0.446l-0.021 0.021c0.075-0.011 0.146-0.024 0.218-0.031C22.129 13.181 22.132 13.18 22.136 13.18L22.136 13.18zM9.593 4.727c0.137 0.187 0.283 0.358 0.436 0.521l0.381 0.38c0.24 0.241 0.465 0.484 0.645 0.703 0.088 0.113 0.164 0.213 0.218 0.3 0.053 0.089 0.099 0.149 0.11 0.251 0.014 0.1-0.042 0.242-0.147 0.387 -0.107 0.14-0.258 0.275-0.435 0.409 0.209 0.081 0.436 0.104 0.677 0.077 0.239-0.026 0.505-0.132 0.725-0.365 0.22-0.227 0.339-0.566 0.359-0.864 0.022-0.302-0.026-0.574-0.093-0.817 -0.138-0.491-0.365-0.889-0.609-1.248 -0.121-0.182-0.271-0.363-0.378-0.504 -0.108-0.125-0.206-0.254-0.295-0.381 -0.37-0.517-0.629-0.98-0.725-1.521C10.36 1.506 10.472 0.805 10.801 0 9.942 0.179 9.174 0.9 8.926 1.909 8.804 2.406 8.83 2.948 8.961 3.43 9.094 3.919 9.326 4.349 9.593 4.727zM14.696 4.727c0.137 0.187 0.284 0.358 0.435 0.521l0.381 0.38c0.24 0.241 0.465 0.484 0.644 0.703 0.089 0.113 0.163 0.213 0.22 0.3 0.05 0.089 0.099 0.149 0.109 0.251 0.013 0.1-0.039 0.242-0.147 0.387 -0.106 0.14-0.259 0.275-0.434 0.409 0.208 0.081 0.436 0.108 0.678 0.077 0.238-0.026 0.505-0.132 0.724-0.365 0.221-0.227 0.34-0.566 0.359-0.864 0.021-0.302-0.024-0.574-0.092-0.817 -0.138-0.491-0.365-0.889-0.609-1.248 -0.122-0.182-0.273-0.363-0.381-0.504 -0.106-0.125-0.206-0.254-0.295-0.381 -0.367-0.517-0.627-0.98-0.723-1.521C15.463 1.506 15.573 0.805 15.904 0c-0.86 0.179-1.627 0.9-1.875 1.909 -0.123 0.497-0.097 1.039 0.037 1.521C14.197 3.919 14.427 4.349 14.696 4.727zM19.343 4.727c0.139 0.187 0.284 0.358 0.436 0.521l0.381 0.38c0.24 0.241 0.465 0.484 0.646 0.703 0.089 0.113 0.163 0.213 0.218 0.3 0.053 0.089 0.1 0.149 0.111 0.251 0.014 0.1-0.041 0.242-0.148 0.387 -0.107 0.14-0.258 0.275-0.434 0.409 0.209 0.081 0.438 0.108 0.676 0.077 0.24-0.026 0.506-0.132 0.727-0.365 0.219-0.227 0.338-0.566 0.358-0.864 0.022-0.302-0.024-0.574-0.093-0.817 -0.137-0.491-0.364-0.889-0.608-1.248 -0.122-0.182-0.274-0.363-0.381-0.504 -0.106-0.125-0.204-0.254-0.294-0.381 -0.369-0.517-0.629-0.98-0.725-1.521C20.11 1.506 20.223 0.805 20.552 0c-0.859 0.179-1.627 0.9-1.873 1.909 -0.126 0.497-0.099 1.039 0.034 1.521C18.844 3.919 19.075 4.349 19.343 4.727z"/>
        </symbol>
        <symbol id="tea" viewBox="0 0 38.166 26.18">
            <path fill="#F5F5F5" d="M10.892 7.787h18.295c-0.01-0.005-0.017-0.01-0.025-0.017h0.324c-1.295-2.985-3.961-5.235-7.205-5.956C22.062 0.778 21.142 0 20.038 0c-1.101 0-2.022 0.778-2.24 1.814 -3.246 0.721-5.912 2.97-7.208 5.956h0.325C10.908 7.777 10.9 7.782 10.892 7.787zM31.532 21.217c-2.399 2.982-6.647 4.963-11.494 4.963 -4.191 0-7.936-1.48-10.424-3.813C9.13 22.364 6.717 22.25 4.85 20.436c-1.444-1.404-2.178-3.414-2.182-5.975v-0.134l0.027-0.131c0-0.002 0.096-0.558-0.256-0.972 -0.379-0.449-1.235-0.697-2.415-0.676L0 10.082c0.036-0.002 0.07-0.002 0.105-0.002 1.962 0 3.394 0.539 4.258 1.603 0.913 1.122 0.837 2.41 0.771 2.875 0.019 1.822 0.501 3.205 1.433 4.111 0.229 0.221 0.476 0.404 0.723 0.553 -0.528-1.129-0.816-2.35-0.816-3.621 0-2.91 1.505-5.542 3.941-7.457h19.249c0.127 0.099 0.249 0.203 0.37 0.306 1.321-0.659 3.413-1.439 5.164-0.901 1.096 0.335 1.897 1.121 2.386 2.337C39.426 14.477 36.754 17.288 31.532 21.217zM36.603 10.277c-0.367-0.914-0.928-1.477-1.713-1.718 -1.273-0.393-2.872 0.132-4.026 0.667 1.719 1.771 2.741 3.979 2.741 6.374 0 1.084-0.212 2.133-0.601 3.119C36.752 15.627 37.904 13.531 36.603 10.277z"/>
        </symbol>
        <symbol id="vegetarian" viewBox="0 0 33.24 35.928">
            <path fill="#F5F5F5" d="M22.43 18.125c0 0-0.005-0.01-0.016-0.025 -0.228 0.262-0.462 0.533-0.707 0.811L22.43 18.125zM22.414 18.1c-0.17-0.24-1.688-2.313-3.573-1.599l2.643 2.655 0.224-0.245c-0.755 0.865-1.583 1.814-2.496 2.877 -4.192 4.879-8.127 8.541-11.446 10.912 -1.045-2.516-3.127-2.32-3.127-2.32l2.736 2.588c-3.102 2.154-5.641 3.16-7.296 2.927 -0.473-2.067 1.188-7.113 5.318-13.431l2.285 2.16c-0.397-1.604-1.151-2.416-1.853-2.826 1.473-2.194 3.236-4.532 5.31-6.944 2.298-2.673 4.039-4.7 5.445-6.167 0.21 0.212 2.524 3.224 3.707 3.352 0.577-1.827-2.824-4.317-2.824-4.317s3.131-3.808 7.102-0.334C28.543 10.803 27.896 11.815 22.414 18.1zM16.151 20.763c-0.863-3.499-3.434-3.246-3.434-3.246L16.151 20.763zM30.721 5.498l-2.915 0.119 1.829-1.987c0.311-0.335 1.084-1.376 0.752-1.684 -0.334-0.307-1.65 0.236-1.959 0.57l-1.833 1.987 -0.11-2.701C26.466 1.349 26.152-0.019 25.698 0c-0.457 0.018-0.873 1.416-0.856 1.87l0.194 4.683c-0.004 0.004 0.001 0.009 0.003 0.013 0.006 0.103 0.028 0.203 0.071 0.297 0.094 0.198 0.258 0.351 0.462 0.427 0.099 0.035 0.202 0.051 0.304 0.047 0.004 0.001 0.008 0.004 0.013 0.002 0.005 0.002 0.01-0.002 0.014-0.003C25.937 7.335 25.968 7.32 26 7.315c0.037 0.003 0.069 0.018 0.105 0.016L30.79 7.14c0.453-0.018 2.468-0.052 2.45-0.507C33.221 6.179 31.176 5.479 30.721 5.498z"/>
        </symbol>
        <symbol id="vegan" viewBox="0 0 33.24 35.928">
            <path fill="#F5F5F5" d="M22.43 18.125c0 0-0.005-0.01-0.016-0.025 -0.228 0.262-0.462 0.533-0.707 0.811L22.43 18.125zM22.414 18.1c-0.17-0.24-1.688-2.313-3.573-1.599l2.643 2.655 0.224-0.245c-0.755 0.865-1.583 1.814-2.496 2.877 -4.192 4.879-8.127 8.541-11.446 10.912 -1.045-2.516-3.127-2.32-3.127-2.32l2.736 2.588c-3.102 2.154-5.641 3.16-7.296 2.927 -0.473-2.067 1.188-7.113 5.318-13.431l2.285 2.16c-0.397-1.604-1.151-2.416-1.853-2.826 1.473-2.194 3.236-4.532 5.31-6.944 2.298-2.673 4.039-4.7 5.445-6.167 0.21 0.212 2.524 3.224 3.707 3.352 0.577-1.827-2.824-4.317-2.824-4.317s3.131-3.808 7.102-0.334C28.543 10.803 27.896 11.815 22.414 18.1zM16.151 20.763c-0.863-3.499-3.434-3.246-3.434-3.246L16.151 20.763zM30.721 5.498l-2.915 0.119 1.829-1.987c0.311-0.335 1.084-1.376 0.752-1.684 -0.334-0.307-1.65 0.236-1.959 0.57l-1.833 1.987 -0.11-2.701C26.466 1.349 26.152-0.019 25.698 0c-0.457 0.018-0.873 1.416-0.856 1.87l0.194 4.683c-0.004 0.004 0.001 0.009 0.003 0.013 0.006 0.103 0.028 0.203 0.071 0.297 0.094 0.198 0.258 0.351 0.462 0.427 0.099 0.035 0.202 0.051 0.304 0.047 0.004 0.001 0.008 0.004 0.013 0.002 0.005 0.002 0.01-0.002 0.014-0.003C25.937 7.335 25.968 7.32 26 7.315c0.037 0.003 0.069 0.018 0.105 0.016L30.79 7.14c0.453-0.018 2.468-0.052 2.45-0.507C33.221 6.179 31.176 5.479 30.721 5.498z"/>
        </symbol>

    </defs>
</svg>