<svg xmlns="http://www.w3.org/2000/svg" version="1.1" id="Layer_1" x="0px" y="0px" viewBox="0 0 10.3 8.6" enable-background="new 0 0 10.3 8.6" xml:space="preserve"><path fill="#fff" d="M10.3 1.3c0 0.2-0.2 0.4-0.4 0.4H0.4C0.2 1.7 0 1.5 0 1.3V0.4C0 0.2 0.2 0 0.4 0h9.4c0.2 0 0.4 0.2 0.4 0.4V1.3zM10.3 4.7c0 0.2-0.2 0.4-0.4 0.4H0.4C0.2 5.1 0 5 0 4.7V3.9c0-0.2 0.2-0.4 0.4-0.4h9.4c0.2 0 0.4 0.2 0.4 0.4V4.7zM10.3 8.1c0 0.2-0.2 0.4-0.4 0.4H0.4C0.2 8.6 0 8.4 0 8.1V7.3c0-0.2 0.2-0.4 0.4-0.4h9.4c0.2 0 0.4 0.2 0.4 0.4V8.1z"/></svg>