<svg xmlns="http://www.w3.org/2000/svg" version="1.1" id="Layer_1" x="0px" y="0px" viewBox="846 -756 68 68" enable-background="new 846 -756 68 68" xml:space="preserve"><path fill="#b2a68e" d="M900.1-749.8h-40.2c-2.1 0-3.9 0.8-5.5 2.3s-2.3 3.3-2.3 5.5v40.2c0 2.1 0.8 3.9 2.3 5.5 1.5 1.5 3.3 2.3 5.5 2.3h40.2c2.1 0 3.9-0.8 5.5-2.3 1.5-1.5 2.3-3.3 2.3-5.5v-40.2c0-2.1-0.8-3.9-2.3-5.5C904-749.1 902.2-749.8 900.1-749.8zM914-742.1v40.2c0 3.8-1.4 7.1-4.1 9.8 -2.7 2.7-6 4.1-9.8 4.1h-40.2c-3.8 0-7.1-1.4-9.8-4.1 -2.7-2.7-4.1-6-4.1-9.8v-40.2c0-3.8 1.4-7.1 4.1-9.8s6-4.1 9.8-4.1h40.2c3.8 0 7.1 1.4 9.8 4.1C912.6-749.2 914-745.9 914-742.1z"/></svg>